%FSLAX45Y45*%
%MOMM*%
G04 EasyPC Gerber Version 9.0.5 Build 2314 *
%ADD120R,0.26000X1.72000*%
%ADD121R,1.42000X1.22000*%
%ADD122R,1.31700X1.44400*%
%ADD76R,1.81200X1.33600*%
%ADD77R,1.91200X1.33600*%
%ADD10C,0.20320*%
X0Y0D02*
D02*
D10*
X10160Y117120D02*
X2289390D01*
Y1994340*
X10160*
Y117120*
D02*
D76*
X679030Y247850D03*
D02*
D77*
X942140Y244680D03*
X1208420D03*
X1471530D03*
D02*
D120*
X710770Y1353570D03*
X711260Y535560D03*
X775090Y1352900D03*
X777830Y535560D03*
X841230D03*
X842870Y1354640D03*
X906270D03*
X907800Y535560D03*
X969390Y1353570D03*
X971200Y535560D03*
X1033070Y1351470D03*
X1037770Y535560D03*
X1099640Y1351470D03*
X1101170Y532390D03*
X1167740D03*
X1169380Y1354640D03*
X1231140Y532390D03*
X1232780Y1354640D03*
X1299350D03*
X1300880Y532390D03*
X1362750Y1354640D03*
X1364280Y532390D03*
X1429320Y1354640D03*
X1430850Y532390D03*
X1492660Y1356250D03*
X1494250Y532390D03*
X1557650D03*
X1559290Y1354640D03*
D02*
D121*
X1507740Y1664030D03*
X1508450Y1857450D03*
X1800210Y1180290D03*
Y1364150D03*
X1801010Y1662170D03*
X1806490Y1855280D03*
X1809720Y679430D03*
Y860120D03*
D02*
D122*
X377880Y260350D03*
Y488950D03*
X452840Y852380D03*
Y1080980D03*
X464810Y1628980D03*
Y1857580D03*
X782520Y1629030D03*
Y1857630D03*
X1162920Y1632200D03*
Y1860800D03*
X0Y0D02*
M02*
