%FSLAX45Y45*%
%MOMM*%
G04 EasyPC Gerber Version 9.0.5 Build 2314 *
%ADD98O,2.38000X3.00000*%
%ADD96O,2.40000X3.00000*%
%ADD110R,2.61920X1.75000*%
%ADD111R,5.00000X2.40000*%
%ADD10C,0.20320*%
%ADD93C,0.25400*%
%ADD105C,0.38100*%
%ADD106C,0.63500*%
%ADD95C,0.82000*%
%ADD100C,0.92000*%
X0Y0D02*
D02*
D10*
X10160Y117120D02*
X2289390D01*
Y1994340*
X10160*
Y117120*
X403240Y577530D02*
X810340D01*
Y1011010*
X403240*
Y577530*
X810340*
X403240Y597800D02*
X810340D01*
X403240Y618070D02*
X810340D01*
X403240Y638340D02*
X810340D01*
X403240Y658610D02*
X810340D01*
X403240Y678880D02*
X810340D01*
X403240Y699150D02*
X810340D01*
X403240Y719420D02*
X810340D01*
X403240Y739690D02*
X810340D01*
X403240Y759960D02*
X810340D01*
X403240Y780230D02*
X810340D01*
X403240Y800500D02*
X810340D01*
X403240Y820770D02*
X810340D01*
X403240Y841040D02*
X810340D01*
X403240Y861310D02*
X810340D01*
X403240Y881580D02*
X810340D01*
X403240Y901850D02*
X810340D01*
X403240Y922120D02*
X810340D01*
X403240Y942390D02*
X810340D01*
X403240Y962660D02*
X810340D01*
X403240Y982930D02*
X810340D01*
X403240Y1003200D02*
X810340D01*
X403240Y957890D02*
X1889970D01*
Y1939870*
X403240*
Y957890*
X1889970*
X403240Y978160D02*
X1889970D01*
X403240Y998430D02*
X1889970D01*
X403240Y1018700D02*
X1889970D01*
X403240Y1038970D02*
X1889970D01*
X403240Y1059240D02*
X1889970D01*
X403240Y1079510D02*
X1889970D01*
X403240Y1099780D02*
X1889970D01*
X403240Y1120050D02*
X1889970D01*
X403240Y1140320D02*
X1889970D01*
X403240Y1160590D02*
X1889970D01*
X403240Y1180860D02*
X1889970D01*
X403240Y1201130D02*
X1889970D01*
X403240Y1221400D02*
X1889970D01*
X403240Y1241670D02*
X1889970D01*
X403240Y1261940D02*
X1889970D01*
X403240Y1282210D02*
X1889970D01*
X403240Y1302480D02*
X1889970D01*
X403240Y1322750D02*
X1889970D01*
X403240Y1343020D02*
X1889970D01*
X403240Y1363290D02*
X1889970D01*
X403240Y1383560D02*
X1889970D01*
X403240Y1403830D02*
X1889970D01*
X403240Y1424100D02*
X1889970D01*
X403240Y1444370D02*
X1889970D01*
X403240Y1464640D02*
X1889970D01*
X403240Y1484910D02*
X1889970D01*
X403240Y1505180D02*
X1889970D01*
X403240Y1525450D02*
X1889970D01*
X403240Y1545720D02*
X1889970D01*
X403240Y1565990D02*
X1889970D01*
X403240Y1586260D02*
X1889970D01*
X403240Y1606530D02*
X1889970D01*
X403240Y1626800D02*
X1889970D01*
X403240Y1647070D02*
X1889970D01*
X403240Y1667340D02*
X1889970D01*
X403240Y1687610D02*
X1889970D01*
X403240Y1707880D02*
X1889970D01*
X403240Y1728150D02*
X1889970D01*
X403240Y1748420D02*
X1889970D01*
X403240Y1768690D02*
X1889970D01*
X403240Y1788960D02*
X1889970D01*
X403240Y1809230D02*
X1889970D01*
X403240Y1829500D02*
X1889970D01*
X403240Y1849770D02*
X1889970D01*
X403240Y1870040D02*
X1889970D01*
X403240Y1890310D02*
X1889970D01*
X403240Y1910580D02*
X1889970D01*
X403240Y1930850D02*
X1889970D01*
X409580Y174180D02*
X1383380D01*
Y346120*
X409580*
Y174180*
X1383380*
X409580Y194450D02*
X1383380D01*
X409580Y214720D02*
X1383380D01*
X409580Y234990D02*
X1383380D01*
X409580Y255260D02*
X1383380D01*
X409580Y275530D02*
X1383380D01*
X409580Y295800D02*
X1383380D01*
X409580Y316070D02*
X1383380D01*
X409580Y336340D02*
X1383380D01*
X666350Y364380D02*
X1299600D01*
Y778580*
X666350*
Y364380*
X1299600*
X666350Y384650D02*
X1299600D01*
X666350Y404920D02*
X1299600D01*
X666350Y425190D02*
X1299600D01*
X666350Y445460D02*
X1299600D01*
X666350Y465730D02*
X1299600D01*
X666350Y486000D02*
X1299600D01*
X666350Y506270D02*
X1299600D01*
X666350Y526540D02*
X1299600D01*
X666350Y546810D02*
X1299600D01*
X666350Y567080D02*
X1299600D01*
X666350Y587350D02*
X1299600D01*
X666350Y607620D02*
X1299600D01*
X666350Y627890D02*
X1299600D01*
X666350Y648160D02*
X1299600D01*
X666350Y668430D02*
X1299600D01*
X666350Y688700D02*
X1299600D01*
X666350Y708970D02*
X1299600D01*
X666350Y729240D02*
X1299600D01*
X666350Y749510D02*
X1299600D01*
X666350Y769780D02*
X1299600D01*
X814590Y655970D02*
X883440D01*
Y1004670*
X814590*
Y655970*
X883440*
X814590Y676240D02*
X883440D01*
X814590Y696510D02*
X883440D01*
X814590Y716780D02*
X883440D01*
X814590Y737050D02*
X883440D01*
X814590Y757320D02*
X883440D01*
X814590Y777590D02*
X883440D01*
X814590Y797860D02*
X883440D01*
X814590Y818130D02*
X883440D01*
X814590Y838400D02*
X883440D01*
X814590Y858670D02*
X883440D01*
X814590Y878940D02*
X883440D01*
X814590Y899210D02*
X883440D01*
X814590Y919480D02*
X883440D01*
X814590Y939750D02*
X883440D01*
X814590Y960020D02*
X883440D01*
X814590Y980290D02*
X883440D01*
X814590Y1000560D02*
X883440D01*
X871650Y838810D02*
X944560Y769070D01*
X870570Y766920*
X871650Y838810*
X870740Y778000D02*
X935220D01*
X871040Y798270D02*
X914030D01*
X871350Y818540D02*
X892840D01*
X938220Y968780D02*
X868480Y902210D01*
X861060Y969800*
X938220Y968780*
X867850Y907970D02*
X874510D01*
X865620Y928240D02*
X895750D01*
X863400Y948510D02*
X916980D01*
X861170Y968780D02*
X938220D01*
X1072720Y997530D02*
X1678190D01*
Y1469860*
X1072720*
Y997530*
X1678190*
X1072720Y1017800D02*
X1678190D01*
X1072720Y1038070D02*
X1678190D01*
X1072720Y1058340D02*
X1678190D01*
X1072720Y1078610D02*
X1678190D01*
X1072720Y1098880D02*
X1678190D01*
X1072720Y1119150D02*
X1678190D01*
X1072720Y1139420D02*
X1678190D01*
X1072720Y1159690D02*
X1678190D01*
X1072720Y1179960D02*
X1678190D01*
X1072720Y1200230D02*
X1678190D01*
X1072720Y1220500D02*
X1678190D01*
X1072720Y1240770D02*
X1678190D01*
X1072720Y1261040D02*
X1678190D01*
X1072720Y1281310D02*
X1678190D01*
X1072720Y1301580D02*
X1678190D01*
X1072720Y1321850D02*
X1678190D01*
X1072720Y1342120D02*
X1678190D01*
X1072720Y1362390D02*
X1678190D01*
X1072720Y1382660D02*
X1678190D01*
X1072720Y1402930D02*
X1678190D01*
X1072720Y1423200D02*
X1678190D01*
X1072720Y1443470D02*
X1678190D01*
X1072720Y1463740D02*
X1678190D01*
X1223520Y984630D02*
X1315450Y902210D01*
X1314370Y979310*
X1223520Y984630*
X1313960Y903550D02*
X1315430D01*
X1291350Y923820D02*
X1315150D01*
X1268740Y944090D02*
X1314860D01*
X1246130Y964360D02*
X1314580D01*
X1303960Y174180D02*
X1889970D01*
Y1067700*
X1303960*
Y174180*
X1889970*
X1303960Y194450D02*
X1889970D01*
X1303960Y214720D02*
X1889970D01*
X1303960Y234990D02*
X1889970D01*
X1303960Y255260D02*
X1889970D01*
X1303960Y275530D02*
X1889970D01*
X1303960Y295800D02*
X1889970D01*
X1303960Y316070D02*
X1889970D01*
X1303960Y336340D02*
X1889970D01*
X1303960Y356610D02*
X1889970D01*
X1303960Y376880D02*
X1889970D01*
X1303960Y397150D02*
X1889970D01*
X1303960Y417420D02*
X1889970D01*
X1303960Y437690D02*
X1889970D01*
X1303960Y457960D02*
X1889970D01*
X1303960Y478230D02*
X1889970D01*
X1303960Y498500D02*
X1889970D01*
X1303960Y518770D02*
X1889970D01*
X1303960Y539040D02*
X1889970D01*
X1303960Y559310D02*
X1889970D01*
X1303960Y579580D02*
X1889970D01*
X1303960Y599850D02*
X1889970D01*
X1303960Y620120D02*
X1889970D01*
X1303960Y640390D02*
X1889970D01*
X1303960Y660660D02*
X1889970D01*
X1303960Y680930D02*
X1889970D01*
X1303960Y701200D02*
X1889970D01*
X1303960Y721470D02*
X1889970D01*
X1303960Y741740D02*
X1889970D01*
X1303960Y762010D02*
X1889970D01*
X1303960Y782280D02*
X1889970D01*
X1303960Y802550D02*
X1889970D01*
X1303960Y822820D02*
X1889970D01*
X1303960Y843090D02*
X1889970D01*
X1303960Y863360D02*
X1889970D01*
X1303960Y883630D02*
X1889970D01*
X1303960Y903900D02*
X1889970D01*
X1303960Y924170D02*
X1889970D01*
X1303960Y944440D02*
X1889970D01*
X1303960Y964710D02*
X1889970D01*
X1303960Y984980D02*
X1889970D01*
X1303960Y1005250D02*
X1889970D01*
X1303960Y1025520D02*
X1889970D01*
X1303960Y1045790D02*
X1889970D01*
X1303960Y1066060D02*
X1889970D01*
X1305940Y835640D02*
X1226690Y753220D01*
X1314370Y760580*
X1305940Y835640*
X1227980Y754560D02*
X1242650D01*
X1247470Y774830D02*
X1312770D01*
X1266960Y795100D02*
X1310490D01*
X1286450Y815370D02*
X1308220D01*
X1592520Y1527770D02*
X1853190D01*
Y1941140*
X1592520*
Y1527770*
X1853190*
X1592520Y1548040D02*
X1853190D01*
X1592520Y1568310D02*
X1853190D01*
X1592520Y1588580D02*
X1853190D01*
X1592520Y1608850D02*
X1853190D01*
X1592520Y1629120D02*
X1853190D01*
X1592520Y1649390D02*
X1853190D01*
X1592520Y1669660D02*
X1853190D01*
X1592520Y1689930D02*
X1853190D01*
X1592520Y1710200D02*
X1853190D01*
X1592520Y1730470D02*
X1853190D01*
X1592520Y1750740D02*
X1853190D01*
X1592520Y1771010D02*
X1853190D01*
X1592520Y1791280D02*
X1853190D01*
X1592520Y1811550D02*
X1853190D01*
X1592520Y1831820D02*
X1853190D01*
X1592520Y1852090D02*
X1853190D01*
X1592520Y1872360D02*
X1853190D01*
X1592520Y1892630D02*
X1853190D01*
X1592520Y1912900D02*
X1853190D01*
X1592520Y1933170D02*
X1853190D01*
X1595770Y1473030D02*
X1681360D01*
Y1784540*
X1595770*
Y1473030*
X1681360*
X1595770Y1493300D02*
X1681360D01*
X1595770Y1513570D02*
X1681360D01*
X1595770Y1533840D02*
X1681360D01*
X1595770Y1554110D02*
X1681360D01*
X1595770Y1574380D02*
X1681360D01*
X1595770Y1594650D02*
X1681360D01*
X1595770Y1614920D02*
X1681360D01*
X1595770Y1635190D02*
X1681360D01*
X1595770Y1655460D02*
X1681360D01*
X1595770Y1675730D02*
X1681360D01*
X1595770Y1696000D02*
X1681360D01*
X1595770Y1716270D02*
X1681360D01*
X1595770Y1736540D02*
X1681360D01*
X1595770Y1756810D02*
X1681360D01*
X1595770Y1777080D02*
X1681360D01*
X1618690Y180470D02*
X1893140D01*
Y482010*
X1618690*
Y180470*
X1893140*
X1618690Y200740D02*
X1893140D01*
X1618690Y221010D02*
X1893140D01*
X1618690Y241280D02*
X1893140D01*
X1618690Y261550D02*
X1893140D01*
X1618690Y281820D02*
X1893140D01*
X1618690Y302090D02*
X1893140D01*
X1618690Y322360D02*
X1893140D01*
X1618690Y342630D02*
X1893140D01*
X1618690Y362900D02*
X1893140D01*
X1618690Y383170D02*
X1893140D01*
X1618690Y403440D02*
X1893140D01*
X1618690Y423710D02*
X1893140D01*
X1618690Y443980D02*
X1893140D01*
X1618690Y464250D02*
X1893140D01*
D02*
D93*
X555400Y625080D02*
X679030Y495110D01*
Y625080*
X555400*
X675970Y498330D02*
X679030D01*
X651850Y523680D02*
X679030D01*
X627740Y549030D02*
X679030D01*
X603630Y574380D02*
X679030D01*
X579510Y599730D02*
X679030D01*
X812170Y558510D02*
X580760Y320760D01*
X805830Y317590*
X812170Y558510*
X590100Y330360D02*
X806170D01*
X614780Y355710D02*
X806830D01*
X639450Y381060D02*
X807500D01*
X664130Y406410D02*
X808170D01*
X688800Y431760D02*
X808830D01*
X713470Y457110D02*
X809500D01*
X738150Y482460D02*
X810170D01*
X762820Y507810D02*
X810840D01*
X787500Y533160D02*
X811500D01*
D02*
D95*
X469810Y257360D03*
X561740Y463410D03*
X970610Y868160D03*
X1215280Y863800D03*
X1796920Y1480220D03*
X1812770Y281960D03*
D02*
D96*
X2115040Y384160D03*
Y812110D03*
Y1236890D03*
X2116150Y1675470D03*
D02*
D98*
X179280Y1742040D03*
X181340Y761390D03*
X191960Y1247520D03*
D02*
D100*
X617680Y1616530D03*
X788150Y1115620D03*
X1016390D03*
X1209760D03*
X1299230Y1863790D03*
D02*
D105*
X315590Y1250690D02*
X822800D01*
X1011880Y1439770*
X490880Y1645060D02*
X589150D01*
X617680Y1616530*
X561740Y463410D02*
X381050D01*
X206700Y289060*
X765150Y1102940D02*
X775470D01*
X788150Y1115620*
X927630Y1207550D02*
Y1204380D01*
X1016390Y1115620*
X970610Y868160D02*
X1210920D01*
X1215280Y863800*
X1070990Y1825750D02*
X1261190D01*
X1299230Y1863790*
X1725380Y291810D02*
X1802920D01*
X1812770Y281960*
X1796920Y1480220D02*
X1621080D01*
X1595770Y1505530*
X1807800Y1423500D02*
Y1469340D01*
X1796920Y1480220*
D02*
D106*
X1801210Y374650D02*
X2105530D01*
X2115040Y384160*
D02*
D110*
X206700Y289060D03*
D02*
D111*
X315590Y1250690D03*
X0Y0D02*
M02*
