G04 EasyPC Gerber Version 21.0.3 Build 4286 *
G04 #@! TF.Part,Single*
G04 #@! TF.FileFunction,Copper,L2,Bot *
G04 #@! TF.FilePolarity,Positive *
%FSLAX45Y45*%
%MOMM*%
G04 #@! TA.AperFunction,WasherPad*
%ADD117O,3.00000X1.80000*%
%ADD125O,2.40000X2.60000*%
%ADD18O,2.40000X3.00000*%
%ADD127O,2.50000X2.40000*%
%ADD126O,2.60000X2.40000*%
%ADD128O,2.80000X2.40000*%
%ADD14O,3.00000X2.40000*%
G04 #@! TA.AperFunction,ComponentPad*
%ADD132R,2.20000X2.20000*%
G04 #@! TD.AperFunction*
%ADD10C,0.63500*%
%ADD130C,0.80000*%
%ADD131C,1.20000*%
G04 #@! TA.AperFunction,ComponentPad*
%ADD77C,2.20000*%
G04 #@! TA.AperFunction,WasherPad*
%ADD124C,2.40000*%
%ADD129C,4.60000*%
X0Y0D02*
D02*
D10*
X31750Y31750D02*
X6286160D01*
Y9097950*
X31750*
Y31750*
X852780Y4108370D02*
X706960D01*
X700620Y4102030*
X2415590Y2700890D02*
X2425100D01*
Y2704060*
X2361700*
X2631150Y2691380D02*
Y2697720D01*
X2666790Y6276650D02*
X2666020D01*
Y6273480*
X3309530Y3008380D02*
Y3170050D01*
X3315870Y3176390*
X3439500Y4260530D02*
X3445840Y4266870D01*
D02*
D14*
X1001770Y393130D03*
X1290240Y2738930D03*
X1429720Y396300D03*
X2304640Y8443330D03*
X4197130Y8635130D03*
D02*
D18*
X849610Y2729420D03*
X900330Y7436870D03*
D02*
D77*
X700620Y4102030D03*
X2697720Y3775740D03*
X3461690Y3813560D03*
D02*
D117*
X1331450Y3823070D03*
X1337790Y4108370D03*
D02*
D124*
X893990Y6119720D03*
Y7135720D03*
X1715020Y4987220D03*
Y6003220D03*
X1749890Y6763230D03*
Y7779230D03*
X1959110Y3173220D03*
X1981300Y8064530D03*
X2050220Y5175850D03*
Y5461960D03*
Y5759940D03*
X2095420Y3704180D03*
Y4720180D03*
X2291960Y7286310D03*
Y8048310D03*
X2352190Y809970D03*
Y1825970D03*
X2412420Y5176660D03*
X2434610Y4438050D03*
Y4732050D03*
X2631150Y815550D03*
Y1109550D03*
Y2412420D03*
Y2691380D03*
X2662850Y7278370D03*
Y8294370D03*
X2666790Y6276650D03*
X2786480Y4412690D03*
X2913280Y6733130D03*
X2920790Y5514650D03*
Y6276650D03*
X2975110Y3173220D03*
X2994100Y827420D03*
X3008380Y3793160D03*
Y4809160D03*
X3049590Y7286310D03*
Y8048310D03*
X3174790Y5514650D03*
Y6276650D03*
X3315870Y3176390D03*
X3401460Y7294370D03*
Y7585860D03*
X3426820Y4813660D03*
X3428790Y5514650D03*
Y6276650D03*
X3445840Y4266870D03*
X3682790Y5514650D03*
Y6276650D03*
X3686760Y5154470D03*
X3769180Y3811370D03*
Y4827370D03*
X3772350Y7291050D03*
Y8053050D03*
X3929280Y6733130D03*
X3936790Y5514650D03*
Y6276650D03*
X4010100Y827420D03*
X4114710Y3811370D03*
Y4827370D03*
X4190790Y5514650D03*
Y6276650D03*
X4203470Y7321150D03*
Y8337150D03*
X4331870Y3176390D03*
X4400010Y1041380D03*
Y2057380D03*
X4463410Y5183000D03*
X4466580Y3811370D03*
Y4827370D03*
X4669460Y8156460D03*
X4688480Y7113530D03*
Y7875530D03*
X4758220Y1050890D03*
Y2066890D03*
X4812110Y4533150D03*
X4815280Y4835850D03*
X4862830Y5251140D03*
Y6267140D03*
X5141790Y3804050D03*
Y4098860D03*
X5322480Y6563520D03*
Y7579520D03*
X5487320Y3792940D03*
Y4808940D03*
D02*
D125*
X3033740Y1879860D03*
Y2643830D03*
X3296850Y1879860D03*
Y2643830D03*
X3547280Y1879860D03*
Y2643830D03*
X3810390Y1879860D03*
Y2643830D03*
D02*
D126*
X741830Y1585050D03*
X760850Y2174670D03*
X1816460Y2421930D03*
X1819630Y2748440D03*
D02*
D127*
X1822800Y795720D03*
X1825970Y1122230D03*
D02*
D128*
X5341500Y1527990D03*
X5347840Y1806950D03*
X5354180Y2073230D03*
D02*
D129*
X491400Y519930D03*
X561140Y8657320D03*
X5687030Y513590D03*
X5718730Y8692190D03*
D02*
D130*
X313880Y6114980D02*
Y5433430D01*
X320220*
Y4108370*
Y2070060*
X526270Y1864010*
X732320*
X735490Y1860840*
X745000*
X741830Y1585050D02*
Y1566030D01*
X1512140Y795720*
X1822800*
X745000Y1588220D02*
X741830Y1585050D01*
X852780Y4108370D02*
X320220D01*
X893990Y6119720D02*
Y6114980D01*
X313880*
X900330Y7436870D02*
X893990D01*
Y7135720*
X1290240Y2738930D02*
X859120D01*
X849610Y2729420*
X1290240Y2738930D02*
Y2244410D01*
X760850*
Y2174670*
X1290240Y2738930D02*
X1810120D01*
X1819630Y2748440*
X1331450Y3823070D02*
Y3566300D01*
X1730870Y3166880*
X1917900*
X1924240Y3173220*
X1959110*
X1337790Y4108370D02*
X852780D01*
X1429720Y396300D02*
X1705510D01*
X1878280Y569070*
X1429720Y396300D02*
X1004940D01*
X1001770Y393130*
X1715020Y4987220D02*
Y4872340D01*
X1867180Y4720180*
X2095420*
X1715020Y6003220D02*
X1753060D01*
Y6273480*
X1749890Y7779230D02*
Y7322750D01*
X2342680Y6729960*
X2910110*
X2913280Y6733130*
X1753060Y6273480D02*
Y6763230D01*
X1749890*
X1816460Y1886200D02*
Y1860840D01*
X745000*
X1816460Y2421930D02*
Y1886200D01*
X1822800Y795720D02*
Y624540D01*
X1878280Y569070*
X1825970Y1122230D02*
Y1876690D01*
X1816460Y1886200*
X1878280Y569070D02*
X2028850Y418490D01*
X4504620*
X4732860Y646730*
Y691110*
X1981300Y8064530D02*
X1537500D01*
X1312430Y7839460*
Y4862830*
X1775250Y4400010*
Y3610680*
X1936920Y3449010*
X2415590*
X1981300Y8064530D02*
X2275740D01*
X2291960Y8048310*
X2050220Y5175850D02*
X2406080D01*
Y5176660*
X2412420*
X2050220Y5461960D02*
Y5175850D01*
X2095420Y3704180D02*
Y4247850D01*
X2279280Y4431710*
X2428270*
X2434610Y4438050*
X2095420Y4720180D02*
X2422740D01*
X2434610Y4732050*
X2291960Y7286310D02*
Y7525630D01*
X2675530Y7909200*
Y8048310*
X2352190Y809970D02*
X2625570D01*
X2631150Y815550*
X2361700Y2704060D02*
X1889370D01*
X1844990Y2748440*
X1819630*
X2361700Y2704060D02*
X2352190D01*
Y1825970*
X2415590Y2700890D02*
Y3449010D01*
X2406080Y3458520*
Y3965720*
X2539220Y4098860*
X2900600*
X3198580Y4396840*
Y4447560*
X3426820Y4675800*
Y4813660*
X2631150Y815550D02*
X2982230D01*
X2994100Y827420*
X2631150Y1109550D02*
Y1886200D01*
X1816460*
X2631150Y2412420D02*
Y1886200D01*
Y2697720D02*
X2561410D01*
Y2700890*
X2415590*
X2662850Y7278370D02*
X2299900D01*
X2291960Y7286310*
X2662850Y8294370D02*
Y8321300D01*
X2426670*
X2304640Y8443330*
X2666020Y6273480D02*
X1753060D01*
X2666790Y5514650D02*
Y5543610D01*
X2431440Y5778960*
X2069240*
X2050220Y5759940*
X2675530Y8048310D02*
Y8281690D01*
X2662850Y8294370*
X2697720Y3775740D02*
X2990960D01*
X3008380Y3793160*
X2913280Y6733130D02*
Y6284160D01*
X2920790Y6276650*
Y5514650D02*
Y5247570D01*
X2615300Y4942080*
Y4818450*
X2542390Y4745540*
X2448100*
X2434610Y4732050*
X2975110Y3173220D02*
X3309530D01*
Y3008380*
X3008380Y4809160D02*
Y4634590D01*
X2786480Y4412690*
X3033740Y1879860D02*
Y1883030D01*
X3293680*
X3296850Y1879860*
X3033740D02*
X2967170D01*
X2960830Y1886200*
X2631150*
X3033740Y2643830D02*
Y2345850D01*
X3227110Y2152480*
X4304910*
X4400010Y2057380*
X3033740Y2643830D02*
Y2694550D01*
X3030570Y2697720*
X2631150*
X3049590Y8048310D02*
X2675530D01*
X3174790Y5514650D02*
Y5168720D01*
X2998870Y4992800*
Y4818670*
X3008380Y4809160*
X3174790Y6276650D02*
Y6912250D01*
X3071780Y7015260*
X2732590*
X2666020Y7081830*
Y7275200*
X2662850Y7278370*
X3309530Y3008380D02*
Y2656510D01*
X3296850Y2643830*
X3401460Y7294370D02*
X3057650D01*
X3049590Y7286310*
X3401460Y7294370D02*
X3769030D01*
X3772350Y7291050*
X3401460Y7294370D02*
Y6897740D01*
X3404630Y6894570*
Y6276650*
X3428790*
X3401460Y7585860D02*
Y8600260D01*
X3227110Y8774610*
X1439230*
X313880Y7649260*
Y6114980*
X3428790Y5514650D02*
Y5666810D01*
X3550450Y5788470*
X4358800*
X4834300Y5312970*
Y5279670*
X4862830Y5251140*
X3428790Y5514650D02*
Y4815630D01*
X3426820Y4813660*
X3428790Y6276650D02*
Y6122520D01*
X3534600Y6016710*
X4777240*
X5972330Y4821620*
Y1578710*
X5084730Y691110*
X4732860*
X3445840Y4266870D02*
Y3829410D01*
X3461690Y3813560*
X3464860Y3810390*
X3025610*
X3008380Y3793160*
X3547280Y1879860D02*
Y1106380D01*
X3284170Y843270*
X3009950*
X2994100Y827420*
X3547280Y2643830D02*
Y2437780D01*
X3604340Y2380720*
X5553890*
X5677520Y2257090*
Y1883030*
X5620460Y1825970*
X5366860*
X5347840Y1806950*
X3682790Y5514650D02*
Y5158440D01*
X3686760Y5154470*
X3682790Y6276650D02*
X3661400D01*
Y6865470*
X3852400Y7056470*
X4133730*
X4203470Y7126210*
X3686760Y5154470D02*
Y4909790D01*
X3769180Y4827370*
Y3811370D02*
Y3613850D01*
X3845260Y3537770*
X4694820*
X4812110Y3655060*
Y3978400*
X4919890Y4086180*
X5129110*
X5141790Y4098860*
X3769180Y3811370D02*
Y3810390D01*
X3464860*
X3810390Y1879860D02*
Y1027130D01*
X4010100Y827420*
X3810390Y2643830D02*
Y2894260D01*
X4089350Y3173220*
X4262130*
X4265300Y3176390*
X4331870*
X3929280Y6733130D02*
X4869170D01*
X5097410Y6961370*
Y7354450*
X5322480Y7579520*
X3929280Y6733130D02*
Y6284160D01*
X3936790Y6276650*
Y5514650D02*
Y5288010D01*
X4111540Y5113260*
Y4830540*
X4114710Y4827370*
Y3811370D02*
X3769180D01*
X4114710Y4827370D02*
Y4697990D01*
X4279550Y4533150*
X4466580*
X4197130Y8635130D02*
Y8343490D01*
X4203470Y8337150*
Y7126210D02*
Y7113530D01*
X4688480*
X4203470Y7321150D02*
Y7791910D01*
X3949870Y8045510*
X3779890*
X3772350Y8053050*
X4203470Y7321150D02*
Y7126210D01*
X4331870Y3176390D02*
X5116430D01*
X5487320Y3547280*
Y3792940*
X4400010Y1041380D02*
Y1328280D01*
X4583870Y1512140*
X5325650*
X5341500Y1527990*
X4463410Y5183000D02*
Y5242030D01*
X4190790Y5514650*
X4463410Y5183000D02*
Y4830540D01*
X4466580Y4827370*
Y3811370D02*
Y4533150D01*
X4812110*
X4466580Y4827370D02*
X4806800D01*
X4815280Y4835850*
X4669460Y8156460D02*
Y7894550D01*
X4688480Y7875530*
X4732860Y691110D02*
Y1025530D01*
X4758220Y1050890*
Y2066890D02*
Y2073230D01*
X5354180*
X4815280Y4835850D02*
X5460410D01*
X5487320Y4808940*
X4862830Y6267140D02*
X5198850D01*
X5322480Y6390770*
Y6563520*
X4862830Y6267140D02*
X4295400D01*
X4285890Y6276650*
X4190790*
X5487320Y3792940D02*
Y3804050D01*
X5141790*
X5794260Y8038390D02*
X5824260Y7978390D01*
X5884260Y7948390*
X5944260Y7978390*
X5974260Y8038390*
Y8248390*
X5614260*
Y8038390*
X5644260Y7978390*
X5704260Y7948390*
X5764260Y7978390*
X5794260Y8038390*
Y8248390*
X5854260Y7768390D02*
X5734260D01*
X5674260Y7738390*
X5644260Y7708390*
X5614260Y7648390*
Y7588390*
X5644260Y7528390*
X5674260Y7498390*
X5734260Y7468390*
X5854260*
X5914260Y7498390*
X5944260Y7528390*
X5974260Y7588390*
Y7648390*
X5944260Y7708390*
X5914260Y7738390*
X5854260Y7768390*
X5974260Y7138390D02*
X5614260D01*
Y7288390D02*
Y6988390D01*
X5974260Y6658390D02*
X5614260D01*
Y6808390D02*
Y6508390D01*
X5854260Y6328390D02*
X5734260D01*
X5674260Y6298390*
X5644260Y6268390*
X5614260Y6208390*
Y6148390*
X5644260Y6088390*
X5674260Y6058390*
X5734260Y6028390*
X5854260*
X5914260Y6058390*
X5944260Y6088390*
X5974260Y6148390*
Y6208390*
X5944260Y6268390*
X5914260Y6298390*
X5854260Y6328390*
X5974260Y5848390D02*
X5614260D01*
X5794260Y5698390*
X5614260Y5548390*
X5974260*
D02*
D131*
X706960Y3192850D02*
X1006960D01*
X856960Y3342850D02*
Y3042850D01*
X887650Y716450D02*
X1137650D01*
D02*
D132*
X2666790Y5514650D03*
X0Y0D02*
M02*
