G04 EasyPC Gerber Version 21.0.3 Build 4286 *
G04 #@! TF.Part,Single*
G04 #@! TF.FileFunction,Copper,L1,Top *
G04 #@! TF.FilePolarity,Positive *
%FSLAX45Y45*%
%MOMM*%
G04 #@! TA.AperFunction,WasherPad*
%ADD26R,0.40000X1.60000*%
%ADD25R,0.50000X2.03200*%
%ADD27R,1.60000X0.40000*%
%ADD29R,0.77000X0.82000*%
%ADD28R,0.82000X0.77000*%
G04 #@! TA.AperFunction,SMDPad*
%ADD73R,1.00000X1.09000*%
%ADD72R,1.01600X1.21920*%
G04 #@! TD.AperFunction*
%ADD74C,0.30480*%
%ADD21C,0.38100*%
X0Y0D02*
D02*
D21*
X372140Y2145320D02*
Y1901760D01*
X390960Y1882940*
Y1665960*
X391240Y1665680*
Y1662360*
X473740Y2366300D02*
X768380D01*
X854740Y2279940*
X522100Y288160D02*
X501880D01*
X499140Y285420*
X429290*
X391190Y323520*
Y829310*
X391240Y829360*
Y835710*
X522100Y465960D02*
Y832670D01*
X525140Y835710*
X525260*
X575340Y2145320D02*
Y1808840D01*
X590040Y1794140*
Y1668720*
X591640Y1667120*
Y1662360*
X857170D02*
Y2099710D01*
X854740Y2102140*
X860220Y277100D02*
X1013060D01*
X1057720Y321760*
Y829540*
X1055610Y831650*
Y838490*
X860220Y454900D02*
Y832660D01*
X857170Y835710*
X1172240Y2279940D02*
X1055040D01*
X1029640Y2254540*
Y1925840*
X992940Y1889140*
Y1676400*
X992270Y1675730*
Y1662360*
X1191230D02*
Y2083150D01*
X1172240Y2102140*
X1705520Y1979180D02*
Y2085040D01*
X1752920Y2132440*
X2463920*
X1713420Y675680D02*
Y792600D01*
X1782940Y862120*
X1827180*
X1860360Y895300*
Y1050140*
X1735540Y1176540D02*
X1387940D01*
X1187280Y975880*
Y843490*
X1187540Y843230*
Y838490*
X1735540Y1227100D02*
X1018220D01*
X790700Y999580*
Y836040*
X790370Y835710*
X1735540Y1277660D02*
X866540D01*
X593200Y1004320*
Y838890*
X591640Y837330*
Y835710*
X1735540Y1328220D02*
X967660D01*
X785960Y1509920*
Y1657950*
X790370Y1662360*
X1735540Y1378780D02*
X1391100D01*
X1258380Y1511500*
Y1655690*
X1258030Y1656040*
Y1662360*
X1858780Y1503600D02*
Y1623680D01*
X1705520Y1776940*
Y1871740*
X1909340Y1503600D02*
Y1704260D01*
X1963060Y1757980*
Y1868580*
X1959900Y1871740*
X1961480Y568240D02*
X1713420D01*
X1961480Y1050140D02*
Y675680D01*
X2010460Y1503600D02*
Y1688460D01*
X2070500Y1748500*
Y1939680*
X2061020Y1503600D02*
Y1595240D01*
X2150290Y1684510*
X2062600Y1050140D02*
Y955340D01*
X2236400Y781540*
Y693060*
X2233240Y689900*
Y675680*
X2070500Y1939680D02*
X2065760D01*
X2024680Y1980760*
X1961480*
X1959900Y1979180*
X2070500Y1939680D02*
Y1953900D01*
X2100520Y1983920*
X2212700*
X2217440Y1979180*
X2150290Y1684510D02*
X2217440Y1751660D01*
Y1871740*
X2189000Y1279240D02*
X2339100D01*
X2441800Y1176540*
X2582420*
X2585580Y1173380*
X2189000Y1380360D02*
X2579260D01*
X2588740Y1389840*
X2233240Y568240D02*
X2454440D01*
X2851020Y964820*
Y1173380*
X2233240Y568240D02*
X1961480D01*
X2463920Y1867000D02*
Y1764300D01*
X2407040Y1707420*
X2173200*
X2150290Y1684510*
X2463920Y1974440D02*
Y2132440D01*
X2651940*
X2852600Y1931780*
Y1389840*
X2693020Y1173380D02*
X2851020D01*
X2696180Y1389840D02*
X2852600D01*
X2851020Y1173380D02*
Y1198660D01*
X2852600Y1200240*
Y1217620*
Y1364560D02*
Y1217620D01*
Y1389840D02*
Y1364560D01*
D02*
D25*
X391240Y835710D03*
Y1662360D03*
X459710Y835710D03*
Y1662360D03*
X525260Y835710D03*
Y1662360D03*
X591640Y835710D03*
Y1662360D03*
X657980Y835710D03*
X660110Y1662360D03*
X723570Y835710D03*
Y1662360D03*
X790370Y835710D03*
Y1662360D03*
X857170Y835710D03*
Y1662360D03*
X924130Y838490D03*
X925000Y1662360D03*
X988200Y838490D03*
X992270Y1662360D03*
X1055610Y838490D03*
X1059300Y1662360D03*
X1122500Y838490D03*
X1125660Y1661600D03*
X1187540Y838490D03*
X1191230Y1662360D03*
X1254340Y838490D03*
X1258030Y1662360D03*
D02*
D26*
X1858780Y1503600D03*
X1860360Y1050140D03*
X1909340Y1503600D03*
X1910920Y1050140D03*
X1959900Y1503600D03*
X1961480Y1050140D03*
X2010460Y1503600D03*
X2012040Y1050140D03*
X2061020Y1503600D03*
X2062600Y1050140D03*
D02*
D27*
X1735540Y1176540D03*
Y1227100D03*
Y1277660D03*
Y1328220D03*
Y1378780D03*
X2189000Y1178120D03*
Y1228680D03*
Y1279240D03*
Y1329800D03*
Y1380360D03*
D02*
D28*
X1705520Y1871740D03*
Y1979180D03*
X1713420Y568240D03*
Y675680D03*
X1959900Y1871740D03*
Y1979180D03*
X1961480Y568240D03*
Y675680D03*
X2217440Y1871740D03*
Y1979180D03*
X2233240Y568240D03*
Y675680D03*
X2463920Y1867000D03*
Y1974440D03*
D02*
D29*
X2585580Y1173380D03*
X2588740Y1389840D03*
X2693020Y1173380D03*
X2696180Y1389840D03*
D02*
D72*
X372140Y2145320D03*
X473740Y2366300D03*
X575340Y2145320D03*
D02*
D73*
X522100Y288160D03*
Y465960D03*
X854740Y2102140D03*
Y2279940D03*
X860220Y277100D03*
Y454900D03*
X1172240Y2102140D03*
Y2279940D03*
D02*
D74*
X15240Y15240D02*
X3097500D01*
Y2727540*
X15240*
Y15240*
X0Y0D02*
M02*
